# xmcd CD database file
#
# Track frame offsets:
#	180
#	21524
#	47381
#	76232
#	102161
#	126534
#	152232
#	178898
#
# Disc length: 2713 seconds
#
# Revision: 0
# Processed by: cddbd v1.5.1PL2 Copyright (c) Steve Scherf et al.
# Submitted via: CDex 1.51
#
DISCID=650a9708
DTITLE=Various Artist - Ishq De Jhoote
DYEAR=1900
DGENRE=Punjabi Bhangra
TTITLE0=Channa Ve Teri Chandni
TTITLE1=Noor Tere Naina Da
TTITLE2=Tera Ki Lagda
TTITLE3=Ishq Nachave Gali Gali
TTITLE4=Vairne Lagda E Nai
TTITLE5=Jag Jyundeyan De Mele
TTITLE6=Mai Na Angreji Jandi
TTITLE7=Tor Morni Jehi
EXTD=
EXTT0=
EXTT1=
EXTT2=
EXTT3=
EXTT4=
EXTT5=
EXTT6=
EXTT7=
PLAYORDER=
